<svg xmlns="http://www.w3.org/2000/svg" xmlns:xlink="http://www.w3.org/1999/xlink" width="64" zoomAndPan="magnify" viewBox="0 0 48 48" height="64" preserveAspectRatio="xMidYMid meet" version="1.0"><defs><clipPath id="cea6457616"><path d="M 0.488281 1.253906 L 47.289062 1.253906 L 47.289062 47.019531 L 0.488281 47.019531 Z M 0.488281 1.253906 " clip-rule="nonzero"/></clipPath><clipPath id="977a810ff4"><path d="M 12.980469 1.253906 L 34.800781 1.253906 C 41.699219 1.253906 47.289062 6.847656 47.289062 13.746094 L 47.289062 34.53125 C 47.289062 41.429688 41.699219 47.019531 34.800781 47.019531 L 12.980469 47.019531 C 6.082031 47.019531 0.488281 41.429688 0.488281 34.53125 L 0.488281 13.746094 C 0.488281 6.847656 6.082031 1.253906 12.980469 1.253906 Z M 12.980469 1.253906 " clip-rule="nonzero"/></clipPath><linearGradient x1="0.000869751" gradientTransform="matrix(0.178773, 0, 0, 0.178773, 0.48964, 1.254551)" y1="128" x2="261.782993" gradientUnits="userSpaceOnUse" y2="128" id="9150e76dad"><stop stop-opacity="1" stop-color="rgb(41.600037%, 39.599609%, 99.998474%)" offset="0"/><stop stop-opacity="1" stop-color="rgb(41.712952%, 39.712524%, 99.90387%)" offset="0.015625"/><stop stop-opacity="1" stop-color="rgb(41.938782%, 39.938354%, 99.713135%)" offset="0.03125"/><stop stop-opacity="1" stop-color="rgb(42.164612%, 40.16571%, 99.5224%)" offset="0.046875"/><stop stop-opacity="1" stop-color="rgb(42.391968%, 40.391541%, 99.331665%)" offset="0.0625"/><stop stop-opacity="1" stop-color="rgb(42.617798%, 40.618896%, 99.14093%)" offset="0.078125"/><stop stop-opacity="1" stop-color="rgb(42.845154%, 40.844727%, 98.950195%)" offset="0.09375"/><stop stop-opacity="1" stop-color="rgb(43.070984%, 41.072083%, 98.75946%)" offset="0.109375"/><stop stop-opacity="1" stop-color="rgb(43.29834%, 41.297913%, 98.568726%)" offset="0.125"/><stop stop-opacity="1" stop-color="rgb(43.52417%, 41.525269%, 98.377991%)" offset="0.140625"/><stop stop-opacity="1" stop-color="rgb(43.751526%, 41.751099%, 98.187256%)" offset="0.15625"/><stop stop-opacity="1" stop-color="rgb(43.977356%, 41.978455%, 97.996521%)" offset="0.171875"/><stop stop-opacity="1" stop-color="rgb(44.204712%, 42.204285%, 97.805786%)" offset="0.1875"/><stop stop-opacity="1" stop-color="rgb(44.430542%, 42.431641%, 97.615051%)" offset="0.203125"/><stop stop-opacity="1" stop-color="rgb(44.657898%, 42.657471%, 97.424316%)" offset="0.21875"/><stop stop-opacity="1" stop-color="rgb(44.883728%, 42.884827%, 97.235107%)" offset="0.234375"/><stop stop-opacity="1" stop-color="rgb(45.111084%, 43.110657%, 97.044373%)" offset="0.25"/><stop stop-opacity="1" stop-color="rgb(45.336914%, 43.336487%, 96.853638%)" offset="0.265625"/><stop stop-opacity="1" stop-color="rgb(45.56427%, 43.563843%, 96.662903%)" offset="0.28125"/><stop stop-opacity="1" stop-color="rgb(45.7901%, 43.789673%, 96.472168%)" offset="0.296875"/><stop stop-opacity="1" stop-color="rgb(46.017456%, 44.017029%, 96.281433%)" offset="0.3125"/><stop stop-opacity="1" stop-color="rgb(46.243286%, 44.242859%, 96.090698%)" offset="0.328125"/><stop stop-opacity="1" stop-color="rgb(46.470642%, 44.470215%, 95.899963%)" offset="0.34375"/><stop stop-opacity="1" stop-color="rgb(46.696472%, 44.696045%, 95.709229%)" offset="0.359375"/><stop stop-opacity="1" stop-color="rgb(46.923828%, 44.923401%, 95.518494%)" offset="0.375"/><stop stop-opacity="1" stop-color="rgb(47.149658%, 45.149231%, 95.327759%)" offset="0.390625"/><stop stop-opacity="1" stop-color="rgb(47.375488%, 45.376587%, 95.137024%)" offset="0.40625"/><stop stop-opacity="1" stop-color="rgb(47.602844%, 45.602417%, 94.946289%)" offset="0.421875"/><stop stop-opacity="1" stop-color="rgb(47.828674%, 45.829773%, 94.75708%)" offset="0.4375"/><stop stop-opacity="1" stop-color="rgb(48.05603%, 46.055603%, 94.566345%)" offset="0.453125"/><stop stop-opacity="1" stop-color="rgb(48.28186%, 46.282959%, 94.37561%)" offset="0.46875"/><stop stop-opacity="1" stop-color="rgb(48.509216%, 46.508789%, 94.184875%)" offset="0.484375"/><stop stop-opacity="1" stop-color="rgb(48.735046%, 46.736145%, 93.994141%)" offset="0.5"/><stop stop-opacity="1" stop-color="rgb(48.962402%, 46.961975%, 93.803406%)" offset="0.515625"/><stop stop-opacity="1" stop-color="rgb(49.188232%, 47.189331%, 93.612671%)" offset="0.53125"/><stop stop-opacity="1" stop-color="rgb(49.415588%, 47.415161%, 93.421936%)" offset="0.546875"/><stop stop-opacity="1" stop-color="rgb(49.641418%, 47.642517%, 93.231201%)" offset="0.5625"/><stop stop-opacity="1" stop-color="rgb(49.868774%, 47.868347%, 93.040466%)" offset="0.578125"/><stop stop-opacity="1" stop-color="rgb(50.094604%, 48.095703%, 92.849731%)" offset="0.59375"/><stop stop-opacity="1" stop-color="rgb(50.32196%, 48.321533%, 92.658997%)" offset="0.609375"/><stop stop-opacity="1" stop-color="rgb(50.547791%, 48.547363%, 92.468262%)" offset="0.625"/><stop stop-opacity="1" stop-color="rgb(50.775146%, 48.774719%, 92.277527%)" offset="0.640625"/><stop stop-opacity="1" stop-color="rgb(51.000977%, 49.000549%, 92.088318%)" offset="0.65625"/><stop stop-opacity="1" stop-color="rgb(51.228333%, 49.227905%, 91.897583%)" offset="0.671875"/><stop stop-opacity="1" stop-color="rgb(51.454163%, 49.453735%, 91.706848%)" offset="0.6875"/><stop stop-opacity="1" stop-color="rgb(51.681519%, 49.681091%, 91.516113%)" offset="0.703125"/><stop stop-opacity="1" stop-color="rgb(51.907349%, 49.906921%, 91.325378%)" offset="0.71875"/><stop stop-opacity="1" stop-color="rgb(52.134705%, 50.134277%, 91.134644%)" offset="0.734375"/><stop stop-opacity="1" stop-color="rgb(52.360535%, 50.360107%, 90.943909%)" offset="0.75"/><stop stop-opacity="1" stop-color="rgb(52.587891%, 50.587463%, 90.753174%)" offset="0.765625"/><stop stop-opacity="1" stop-color="rgb(52.813721%, 50.813293%, 90.562439%)" offset="0.78125"/><stop stop-opacity="1" stop-color="rgb(53.039551%, 51.040649%, 90.371704%)" offset="0.796875"/><stop stop-opacity="1" stop-color="rgb(53.266907%, 51.266479%, 90.180969%)" offset="0.8125"/><stop stop-opacity="1" stop-color="rgb(53.492737%, 51.493835%, 89.990234%)" offset="0.828125"/><stop stop-opacity="1" stop-color="rgb(53.720093%, 51.719666%, 89.7995%)" offset="0.84375"/><stop stop-opacity="1" stop-color="rgb(53.945923%, 51.947021%, 89.608765%)" offset="0.859375"/><stop stop-opacity="1" stop-color="rgb(54.173279%, 52.172852%, 89.419556%)" offset="0.875"/><stop stop-opacity="1" stop-color="rgb(54.399109%, 52.400208%, 89.228821%)" offset="0.890625"/><stop stop-opacity="1" stop-color="rgb(54.626465%, 52.626038%, 89.038086%)" offset="0.90625"/><stop stop-opacity="1" stop-color="rgb(54.852295%, 52.853394%, 88.847351%)" offset="0.921875"/><stop stop-opacity="1" stop-color="rgb(55.079651%, 53.079224%, 88.656616%)" offset="0.9375"/><stop stop-opacity="1" stop-color="rgb(55.305481%, 53.30658%, 88.465881%)" offset="0.953125"/><stop stop-opacity="1" stop-color="rgb(55.532837%, 53.53241%, 88.275146%)" offset="0.96875"/><stop stop-opacity="1" stop-color="rgb(55.758667%, 53.759766%, 88.084412%)" offset="0.984375"/><stop stop-opacity="1" stop-color="rgb(55.986023%, 53.985596%, 87.893677%)" offset="1"/></linearGradient><clipPath id="c7e2c88506"><path d="M 26 9.195312 L 34.121094 9.195312 L 34.121094 24 L 26 24 Z M 26 9.195312 " clip-rule="nonzero"/></clipPath><clipPath id="4e85f67761"><path d="M 13.550781 16 L 22 16 L 22 31 L 13.550781 31 Z M 13.550781 16 " clip-rule="nonzero"/></clipPath><clipPath id="c05004660d"><path d="M 15 31 L 22 31 L 22 37.851562 L 15 37.851562 Z M 15 31 " clip-rule="nonzero"/></clipPath></defs><g clip-path="url(#cea6457616)"><g clip-path="url(#977a810ff4)"><path fill="url(#9150e76dad)" d="M 0.488281 1.253906 L 0.488281 47.019531 L 47.289062 47.019531 L 47.289062 1.253906 Z M 0.488281 1.253906 " fill-rule="nonzero"/></g></g><g clip-path="url(#c7e2c88506)"><path fill="#ffffff" d="M 26.019531 16.816406 C 25.972656 17.632812 26.203125 18.390625 26.5625 19.105469 C 27.082031 20.160156 27.488281 21.234375 27.371094 22.4375 C 27.332031 22.816406 27.519531 22.976562 27.878906 23.046875 C 29.335938 23.332031 30.789062 23.632812 32.238281 23.9375 C 32.558594 24.007812 32.761719 23.902344 32.84375 23.59375 C 33.660156 20.5625 34.441406 17.527344 33.953125 14.339844 C 33.816406 13.433594 33.59375 12.546875 33.15625 11.730469 C 31.875 9.339844 28.667969 9.222656 27.207031 11.515625 C 26.507812 12.609375 26.3125 13.855469 26.167969 15.113281 C 26.101562 15.679688 26.066406 16.25 26.019531 16.816406 " fill-opacity="1" fill-rule="nonzero"/></g><g clip-path="url(#4e85f67761)"><path fill="#ffffff" d="M 13.546875 22.921875 C 13.675781 25.25 14.175781 27.609375 14.851562 29.9375 C 14.933594 30.21875 15.109375 30.328125 15.402344 30.273438 C 16.914062 29.964844 18.429688 29.664062 19.941406 29.359375 C 20.25 29.296875 20.320312 29.085938 20.300781 28.816406 C 20.210938 27.679688 20.496094 26.625 21.042969 25.652344 C 21.914062 24.09375 21.640625 22.457031 21.445312 20.824219 C 21.339844 19.957031 21.125 19.105469 20.742188 18.3125 C 20.089844 16.960938 19.019531 16.25 17.503906 16.222656 C 16.011719 16.195312 15.0625 16.976562 14.445312 18.242188 C 13.742188 19.6875 13.628906 21.25 13.546875 22.921875 " fill-opacity="1" fill-rule="nonzero"/></g><path fill="#ffffff" d="M 26.25 28.378906 C 26.253906 29.769531 26.601562 30.363281 27.472656 30.695312 C 28.726562 31.179688 29.980469 31 30.695312 30.164062 C 31.679688 29.007812 31.953125 27.550781 32.253906 26.121094 C 32.300781 25.894531 32.179688 25.730469 31.9375 25.679688 C 30.429688 25.367188 28.917969 25.050781 27.40625 24.742188 C 27.140625 24.6875 26.964844 24.839844 26.90625 25.078125 C 26.609375 26.238281 26.28125 27.394531 26.25 28.378906 " fill-opacity="1" fill-rule="nonzero"/><g clip-path="url(#c05004660d)"><path fill="#ffffff" d="M 21.453125 34.988281 C 21.398438 33.78125 21.113281 32.617188 20.792969 31.460938 C 20.703125 31.140625 20.519531 31.03125 20.207031 31.09375 C 18.753906 31.390625 17.300781 31.6875 15.847656 31.984375 C 15.558594 32.046875 15.347656 32.183594 15.429688 32.527344 C 15.703125 33.65625 15.9375 34.789062 16.503906 35.820312 C 17.34375 37.347656 19.28125 37.789062 20.710938 36.773438 C 21.328125 36.332031 21.425781 35.675781 21.453125 34.988281 " fill-opacity="1" fill-rule="nonzero"/></g></svg>