<?xml version="1.0" standalone="no"?>
<!DOCTYPE svg PUBLIC "-//W3C//DTD SVG 20010904//EN"
 "http://www.w3.org/TR/2001/REC-SVG-20010904/DTD/svg10.dtd">
<svg version="1.0" xmlns="http://www.w3.org/2000/svg"
 width="626.000000pt" height="626.000000pt" viewBox="0 0 626.000000 626.000000"
 preserveAspectRatio="xMidYMid meet">

<g transform="translate(0.000000,626.000000) scale(0.100000,-0.100000)"
fill="#000000" stroke="none">
<path d="M3521 4486 c-7 -8 -20 -202 -37 -537 -14 -288 -27 -534 -30 -545 -3
-18 -13 -22 -66 -26 -125 -10 -221 -77 -274 -191 -28 -62 -30 -87 -6 -87 57
-1 938 74 945 80 12 11 -16 82 -48 124 -41 53 -71 65 -198 78 -61 6 -115 13
-119 17 -7 6 -58 896 -58 1009 0 42 -5 65 -16 76 -19 20 -77 21 -93 2z"/>
<path d="M3540 3075 c-223 -18 -418 -34 -434 -36 l-29 -4 2 -185 c2 -258 -26
-395 -124 -590 -53 -106 -110 -184 -218 -297 -80 -85 -124 -140 -116 -147 2
-1 90 -15 194 -30 214 -31 230 -29 278 29 35 43 57 50 100 31 25 -10 39 -24
48 -51 13 -36 15 -37 54 -30 22 3 85 12 141 19 55 8 114 21 130 29 86 45 216
256 264 431 11 38 22 71 24 74 10 9 25 -47 32 -111 5 -47 0 -97 -16 -186 -13
-67 -20 -124 -17 -128 11 -11 140 37 188 69 84 57 110 117 128 293 22 216 10
420 -38 660 -42 204 -36 195 -118 194 -38 -1 -250 -16 -473 -34z m-227 -160
c14 -63 1 -270 -22 -359 -21 -80 -99 -256 -128 -288 -12 -14 -19 -15 -30 -7
-11 9 -6 24 26 83 86 156 129 348 115 524 -6 88 -5 94 12 90 12 -2 21 -17 27
-43z m409 0 c28 -157 -12 -385 -97 -555 -43 -86 -66 -113 -85 -100 -12 8 -11
14 8 47 99 164 151 383 133 560 -8 82 -5 95 17 91 11 -2 19 -18 24 -43z"/>
<path d="M2480 2878 c0 -12 -8 -18 -22 -18 -21 -1 -21 -2 -5 -11 13 -7 16 -17
11 -32 -6 -19 -5 -20 10 -8 13 11 19 11 33 0 15 -12 16 -12 10 5 -4 10 -2 25
4 32 9 11 8 14 -1 14 -7 0 -19 8 -26 18 -13 16 -13 16 -14 0z"/>
<path d="M2120 2582 c-8 -4 -16 -15 -17 -26 -1 -12 2 -15 9 -8 6 6 18 8 27 5
13 -4 13 -3 2 5 -7 5 -10 15 -7 21 8 12 7 12 -14 3z"/>
<path d="M2780 2582 c-8 -4 -16 -15 -16 -25 -2 -13 1 -15 10 -7 7 5 15 8 17 5
3 -2 5 5 5 15 0 11 0 20 -1 19 0 0 -7 -3 -15 -7z"/>
<path d="M2420 2538 c0 -12 -8 -18 -22 -18 -21 -1 -21 -2 -5 -11 13 -7 16 -17
11 -32 -6 -19 -5 -20 10 -8 13 11 19 11 32 0 15 -12 16 -11 10 8 -5 15 -2 25
11 32 17 10 17 10 -1 11 -10 0 -25 8 -32 18 -13 16 -13 16 -14 0z"/>
<path d="M2194 2392 c-15 -9 -3 -37 16 -37 19 0 31 28 16 37 -6 4 -13 8 -16 8
-3 0 -10 -4 -16 -8z"/>
<path d="M2600 2222 c-21 -10 -22 -41 -1 -35 9 2 17 13 17 24 0 10 0 19 -1 18
0 0 -7 -3 -15 -7z"/>
<path d="M2238 2163 l-37 -36 -58 22 -58 22 49 -44 c48 -43 48 -43 33 -73 -8
-16 -18 -40 -22 -54 -6 -21 -1 -18 31 18 l39 43 55 -21 55 -21 -41 43 -42 43
19 44 c11 24 18 45 16 47 -2 2 -19 -13 -39 -33z"/>
</g>
</svg>
