<svg width="21" height="40" viewBox="0 0 21 40" fill="none" xmlns="http://www.w3.org/2000/svg">
<path d="M14.3821 0.905342C11.1982 0.542946 7.98343 0.542946 4.79952 0.905342L1.50251 1.28061C1.01482 1.33612 0.633474 1.72705 0.590085 2.21597L0.33666 5.07164C-0.0894332 9.87298 -0.0894335 14.7026 0.336659 19.504L0.590085 22.3596C0.637404 22.8928 1.08408 23.3016 1.61937 23.3016H5.90033V38.6C5.90033 39.039 6.1777 39.4301 6.59201 39.5752C7.00631 39.7204 7.4671 39.5879 7.74107 39.2449L8.54851 38.2339C13.3626 32.2065 17.196 25.4576 19.9075 18.2359L20.3011 17.1876C20.4202 16.8702 20.3761 16.5146 20.1831 16.236C19.9901 15.9573 19.6726 15.7911 19.3337 15.7911H13.7266L18.5326 2.66254C18.6415 2.36499 18.6079 2.03391 18.4414 1.76433C18.2749 1.49474 17.9939 1.31644 17.6791 1.28061L14.3821 0.905342Z" fill="#68EFA3"/>
</svg>
