<svg width="280" height="323" viewBox="0 0 280 323" fill="none" xmlns="http://www.w3.org/2000/svg">
<g clip-path="url(#clip0_93_140)">
<path d="M139.571 33.6887C138.932 30.216 141.255 26.8748 144.756 26.4061C167.292 23.389 190.253 24.8974 212.193 30.8632C234.063 36.8096 254.403 47.044 271.958 60.9039C274.77 63.1237 275.008 67.2571 272.583 69.9007L245.209 99.7452C242.898 102.266 239.017 102.486 236.304 100.412C224.818 91.6305 211.63 85.1193 197.49 81.2748C183.368 77.435 168.618 76.3423 154.091 78.037C150.644 78.4392 147.39 76.1887 146.763 72.7771L139.571 33.6887Z" fill="#EEF8B9"/>
<path d="M281.214 77.2452C283.701 74.8993 287.608 74.9355 289.941 77.428C303.083 91.4657 313.547 107.664 320.83 125.273C328.074 142.785 332.043 161.385 332.572 180.207C332.671 183.706 329.783 186.512 326.282 186.472L284.777 185.993C281.276 185.953 278.495 183.08 278.327 179.583C277.752 167.641 275.116 155.861 270.514 144.735C265.926 133.643 259.461 123.385 251.397 114.374C249.008 111.704 249.046 107.583 251.657 105.121L281.214 77.2452Z" fill="#98A841"/>
<path d="M50.487 81.0219C47.8064 78.6451 47.624 74.508 50.1972 72.0082C69.1274 53.6179 92.4076 39.953 118.023 32.1996C121.332 31.1978 124.765 33.17 125.7 36.4961L136.474 74.8233C137.433 78.2351 135.399 81.7573 132.025 82.8523C116.214 87.9843 101.796 96.4916 89.8447 107.742C87.3548 110.086 83.4735 110.271 80.9185 108.005L50.487 81.0219Z" fill="#98A841"/>
<path d="M8.40547 182.805C4.9049 182.765 2.09028 179.893 2.27917 176.397C3.98282 144.866 15.3198 114.516 34.8571 89.195C36.9471 86.4862 40.8367 86.0753 43.532 88.1752L75.7061 113.242C78.5307 115.443 78.9515 119.539 76.8258 122.426C65.0063 138.482 57.9812 157.373 56.5245 177.025C56.2657 180.516 53.4113 183.324 49.9107 183.284L8.40547 182.805Z" fill="#D3E763"/>
</g>
<defs>
<clipPath id="clip0_93_140">
<rect width="280" height="323" fill="white"/>
</clipPath>
</defs>
</svg>
