<svg width="335" height="324" viewBox="0 0 335 324" fill="none" xmlns="http://www.w3.org/2000/svg">
<path d="M139.571 10.6888C138.932 7.21613 141.255 3.87497 144.756 3.4062C167.292 0.389116 190.253 1.89754 212.193 7.86331C234.063 13.8097 254.403 24.0441 271.958 37.9041C274.77 40.1238 275.008 44.2572 272.583 46.9008L245.209 76.7453C242.898 79.2657 239.017 79.4864 236.304 77.4121C224.818 68.6306 211.63 62.1195 197.49 58.2749C183.368 54.4351 168.618 53.3424 154.091 55.0372C150.644 55.4393 147.39 53.1888 146.763 49.7772L139.571 10.6888Z" fill="#EEF8B9"/>
<path d="M281.214 54.2453C283.701 51.8994 287.608 51.9356 289.941 54.4281C303.083 68.4658 313.547 84.6639 320.83 102.273C328.074 119.785 332.043 138.385 332.572 157.207C332.671 160.706 329.783 163.512 326.282 163.472L284.777 162.993C281.276 162.953 278.495 160.08 278.327 156.584C277.752 144.641 275.116 132.862 270.514 121.735C265.926 110.643 259.461 100.385 251.397 91.3737C249.008 88.7037 249.046 84.583 251.657 82.1212L281.214 54.2453Z" fill="#98A841"/>
<path d="M50.487 58.0221C47.8064 55.6453 47.624 51.5081 50.1972 49.0083C69.1274 30.6181 92.4076 16.9531 118.023 9.1997C121.332 8.19795 124.765 10.1701 125.7 13.4962L136.474 51.8234C137.433 55.2353 135.399 58.7574 132.025 59.8524C116.214 64.9845 101.796 73.4917 89.8447 84.742C87.3548 87.086 83.4735 87.2712 80.9185 85.0056L50.487 58.0221Z" fill="#98A841"/>
<path d="M8.40547 159.805C4.90491 159.765 2.09028 156.893 2.27918 153.397C3.98281 121.866 15.3198 91.5163 34.8571 66.1951C36.9472 63.4863 40.8367 63.0754 43.532 65.1753L75.7061 90.2426C78.5307 92.4433 78.9515 96.5387 76.8258 99.4261C65.0063 115.482 57.9812 134.374 56.5245 154.025C56.2657 157.516 53.4113 160.325 49.9107 160.284L8.40547 159.805Z" fill="#D3E763"/>
</svg>
