<svg width="92" height="106" viewBox="0 0 92 106" fill="none" xmlns="http://www.w3.org/2000/svg">
<path d="M91.7834 53C86.8168 53.19 72.5131 53.3799 68.9372 53.5699C51.6535 54.7097 48.0776 58.129 46.8856 74.6559C46.687 78.0753 46.4883 101.251 46.2896 106C46.091 101.251 45.8923 78.0753 45.6937 74.6559C44.5017 58.129 40.9258 54.7097 23.6421 53.5699C20.0662 53.3799 5.76246 53.19 0.795898 53C5.76246 52.81 20.0662 52.6201 23.6421 52.4301C40.9258 51.2903 44.5017 47.871 45.6937 31.3441C45.8923 27.9247 46.091 4.7491 46.2896 0C46.4883 4.7491 46.687 27.9247 46.8856 31.3441C48.0776 47.871 51.6535 51.2903 68.9372 52.4301C72.5131 52.6201 86.6182 52.81 91.7834 53Z" fill="white"/>
</svg>
