<svg width="34" height="35" viewBox="0 0 34 35" fill="none" xmlns="http://www.w3.org/2000/svg">
<path d="M25.9116 15.1611C25.429 15.6551 25.0595 16.2512 24.8293 16.9071C24.599 17.563 24.5138 18.2624 24.5797 18.9556L24.5568 18.9323C24.6245 19.7482 24.5163 20.5694 24.2399 21.3384C23.9634 22.1075 23.5254 22.8059 22.9562 23.3849C22.3871 23.9639 21.7006 24.4096 20.9447 24.6909C20.1887 24.9721 19.3816 25.0821 18.5796 25.0132L18.6025 25.0366C17.6431 24.9457 16.6795 25.1581 15.8431 25.6448C15.0068 26.1315 14.3383 26.8688 13.9288 27.7562C13.5194 28.6435 13.389 29.6378 13.5553 30.6033C13.7216 31.5688 14.1766 32.4587 14.8582 33.1515C15.5399 33.8444 16.4149 34.3065 17.3642 34.4748C18.3134 34.6431 19.2905 34.5095 20.1624 34.0922C21.0342 33.6749 21.7583 32.9941 22.236 32.1428C22.7136 31.2914 22.9215 30.3109 22.8313 29.335L22.8555 29.3583C22.7878 28.5423 22.896 27.7212 23.1724 26.9521C23.4489 26.1831 23.8869 25.4847 24.4561 24.9056C25.0252 24.3266 25.7117 23.8809 26.4676 23.5997C27.2235 23.3185 28.0307 23.2084 28.8327 23.2773L28.8085 23.254C29.5922 23.3257 30.381 23.195 31.1018 22.8739C31.8227 22.5529 32.4522 22.052 32.932 21.4175C33.4118 20.7831 33.7265 20.0357 33.8468 19.2446C33.9671 18.4535 33.8892 17.6443 33.6202 16.892C33.3513 16.1396 32.9001 15.4686 32.3083 14.9409C31.7166 14.4133 31.0035 14.0462 30.2351 13.8736C29.4668 13.701 28.668 13.7285 27.9129 13.9536C27.1578 14.1786 26.4708 14.594 25.9154 15.1611H25.9116Z" fill="#161616"/>
<path d="M16.5176 21.9819L16.4934 21.9585C17.1751 22.0284 17.8635 21.9433 18.5088 21.7093C19.1542 21.4754 19.7404 21.0984 20.2251 20.6058C20.7097 20.1131 21.0807 19.517 21.3111 18.8606C21.5416 18.2042 21.6257 17.5039 21.5576 16.8103L21.5818 16.8336C21.5141 16.0177 21.6222 15.1965 21.8986 14.4275C22.1751 13.6584 22.6132 12.96 23.1823 12.381C23.7514 11.802 24.4379 11.3563 25.1939 11.0751C25.9498 10.7938 26.7569 10.6838 27.559 10.7527L27.5348 10.7294C28.4942 10.821 29.4581 10.6093 30.295 10.1232C31.1318 9.63706 31.8009 8.90011 32.211 8.01288C32.621 7.12565 32.7521 6.13133 32.5862 5.16555C32.4204 4.19976 31.9658 3.30953 31.2844 2.61627C30.6029 1.92302 29.7279 1.46049 28.7786 1.29178C27.8293 1.12307 26.8519 1.25639 25.9798 1.67356C25.1078 2.09073 24.3834 2.77143 23.9055 3.62282C23.4277 4.47422 23.2196 5.45485 23.3097 6.43097L23.2868 6.40635C23.3547 7.22236 23.2467 8.04362 22.9704 8.81277C22.694 9.58192 22.2559 10.2804 21.6868 10.8595C21.1176 11.4386 20.431 11.8842 19.675 12.1654C18.9189 12.4466 18.1117 12.5564 17.3096 12.4873L17.3325 12.5119C16.6509 12.4421 15.9624 12.5272 15.3171 12.7611C14.6717 12.9951 14.0855 13.372 13.6009 13.8647C13.1162 14.3574 12.7453 14.9535 12.5148 15.6099C12.2844 16.2663 12.2002 16.9666 12.2683 17.6602L12.2454 17.6368C12.3129 18.4527 12.2046 19.2738 11.9281 20.0427C11.6516 20.8117 11.2135 21.51 10.6444 22.089C10.0753 22.6679 9.3889 23.1136 8.63308 23.395C7.87726 23.6763 7.07021 23.7865 6.26823 23.7178L6.29115 23.7411C5.33169 23.6495 4.36779 23.8611 3.53093 24.3473C2.69407 24.8334 2.02498 25.5704 1.61493 26.4576C1.20488 27.3448 1.07384 28.3391 1.23967 29.3049C1.4055 30.2707 1.86013 31.1609 2.54156 31.8542C3.22298 32.5475 4.09802 33.01 5.04733 33.1787C5.99663 33.3474 6.97398 33.2141 7.84607 32.7969C8.71816 32.3798 9.44253 31.699 9.92038 30.8477C10.3982 29.9963 10.6063 29.0156 10.5162 28.0395L10.5404 28.0628C10.4727 27.2469 10.5808 26.4257 10.8573 25.6567C11.1337 24.8876 11.5718 24.1892 12.1409 23.6102C12.7101 23.0312 13.3966 22.5855 14.1525 22.3042C14.9084 22.023 15.7155 21.913 16.5176 21.9819V21.9819Z" fill="#161616"/>
<path d="M7.98389 19.3816C8.46652 18.8877 8.83604 18.2916 9.06606 17.6357C9.29608 16.9797 9.38094 16.2803 9.31456 15.5871L9.33876 15.6105C9.271 14.7943 9.3792 13.9729 9.65578 13.2036C9.93237 12.4344 10.3707 11.7358 10.9401 11.1567C11.5095 10.5777 12.1964 10.1321 12.9526 9.85099C13.7088 9.56993 14.5163 9.46021 15.3185 9.52949L15.2943 9.50617C16.2534 9.59758 17.2169 9.38579 18.0534 8.89968C18.8899 8.41357 19.5586 7.6768 19.9684 6.78985C20.3782 5.90289 20.5091 4.90893 20.3433 3.94351C20.1775 2.97809 19.723 2.08819 19.0418 1.39519C18.3607 0.702189 17.4859 0.239808 16.537 0.0711065C15.588 -0.0975954 14.611 0.0355935 13.7392 0.452509C12.8674 0.869424 12.1432 1.54977 11.6654 2.40077C11.1876 3.25177 10.9794 4.232 11.0693 5.20778L11.0463 5.18446C11.114 6.00041 11.0059 6.82158 10.7295 7.59062C10.453 8.35967 10.0149 9.05808 9.44581 9.6371C8.87667 10.2161 8.19017 10.6618 7.43425 10.943C6.67833 11.2243 5.87118 11.3343 5.06915 11.2654L5.09207 11.2887C4.3084 11.2172 3.51967 11.3482 2.79897 11.6693C2.07827 11.9905 1.44891 12.4916 0.969219 13.1261C0.489528 13.7606 0.175022 14.508 0.0548473 15.2991C-0.0653274 16.0901 0.0127162 16.8993 0.281747 17.6515C0.550777 18.4037 1.00209 19.0747 1.59386 19.6023C2.18564 20.1298 2.89872 20.4968 3.66704 20.6694C4.43537 20.8419 5.23406 20.8143 5.98912 20.5892C6.74418 20.3641 7.43117 19.9487 7.98644 19.3816H7.98389Z" fill="#161616"/>
</svg>
