<svg width="32" height="38" viewBox="0 0 32 38" fill="none" xmlns="http://www.w3.org/2000/svg">
<path d="M17.8495 5.53082V0H0V38H17.8495V32.4692C14.193 32.4692 10.6863 31.0501 8.10081 28.5241C5.51529 25.9982 4.06276 22.5722 4.06276 19C4.06276 15.4278 5.51529 12.0018 8.10081 9.47585C10.6863 6.94989 14.193 5.53082 17.8495 5.53082Z" fill="white"/>
<path d="M17.8495 5.53125V32.4696C21.506 32.4696 25.0127 31.0505 27.5982 28.5246C30.1838 25.9986 31.6363 22.5727 31.6363 19.0004C31.6363 15.4282 30.1838 12.0022 27.5982 9.47628C25.0127 6.95032 21.506 5.53125 17.8495 5.53125Z" fill="white"/>
</svg>
