<svg width="36" height="39" viewBox="0 0 36 39" fill="none" xmlns="http://www.w3.org/2000/svg">
<path d="M17.7733 12.6489C14.0638 12.6489 11.0566 15.656 11.0566 19.3655C11.0566 23.0751 14.0638 26.0822 17.7733 26.0822C21.4828 26.0822 24.4899 23.0751 24.4899 19.3655C24.4899 15.656 21.4828 12.6489 17.7733 12.6489Z" fill="#A37CF9"/>
<path fill-rule="evenodd" clip-rule="evenodd" d="M19.1785 0.364105C18.3046 -0.121368 17.2421 -0.121369 16.3682 0.364105L1.48821 8.63077C0.569674 9.14107 0 10.1092 0 11.16V27.5711C0 28.6219 0.569671 29.5901 1.4882 30.1004L16.3682 38.367C17.2421 38.8525 18.3046 38.8525 19.1785 38.367L34.0585 30.1004C34.977 29.5901 35.5467 28.6219 35.5467 27.5711V11.16C35.5467 10.1092 34.977 9.14107 34.0585 8.63077L19.1785 0.364105ZM19.1785 18.8487C19.1785 13.4272 13.7364 18.3321 19.158 18.3321C19.158 12.9105 24.5796 18.3321 19.158 18.3321C19.158 23.7537 24.6001 18.8487 19.1785 18.8487C19.1785 24.2703 13.7569 18.8487 19.1785 18.8487Z" fill="#A37CF9"/>
<path d="M18.2481 23.9212H16.1815C16.1658 23.7284 16.158 23.4473 16.158 23.0778C16.158 21.4713 16.8077 20.2183 18.1072 19.3187L19.1405 18.5958C19.9703 18.0175 20.3852 17.2303 20.3852 16.2343C20.3852 15.4632 20.1426 14.8126 19.6572 14.2824C19.1719 13.7523 18.483 13.4872 17.5905 13.4872C16.6355 13.4872 15.9075 13.7925 15.4065 14.4029C14.9054 15.0134 14.6549 15.7363 14.6549 16.5716C14.6549 17.0536 14.7097 17.4472 14.8193 17.7524L12.5413 17.4632C12.4474 17.1259 12.4004 16.7403 12.4004 16.3066C12.4004 15.5194 12.5726 14.7644 12.9171 14.0415C13.2615 13.3186 13.8408 12.692 14.6549 12.1619C15.4691 11.6318 16.4476 11.3667 17.5905 11.3667C19.1562 11.3667 20.4009 11.8486 21.3246 12.8125C22.264 13.7764 22.7337 14.9089 22.7337 16.2102C22.7337 17.897 21.9352 19.2946 20.3383 20.4031L19.258 21.1501C18.5691 21.632 18.2246 22.4031 18.2246 23.4634C18.2246 23.6079 18.2325 23.7606 18.2481 23.9212ZM16.111 28.4755C15.8135 28.1703 15.6648 27.8008 15.6648 27.3671C15.6648 26.9333 15.8135 26.5638 16.111 26.2586C16.4085 25.9373 16.7686 25.7767 17.1913 25.7767C17.614 25.7767 17.9741 25.9373 18.2716 26.2586C18.5847 26.5638 18.7413 26.9333 18.7413 27.3671C18.7413 27.8008 18.5847 28.1703 18.2716 28.4755C17.9741 28.7808 17.614 28.9334 17.1913 28.9334C16.7686 28.9334 16.4085 28.7808 16.111 28.4755Z" fill="white"/>
</svg>
