<svg width="39" height="35" viewBox="0 0 39 35" fill="none" xmlns="http://www.w3.org/2000/svg">
<path fill-rule="evenodd" clip-rule="evenodd" d="M18.567 2.89683C13.4457 -0.145972 7.18232 -0.642942 1.63709 1.55352C0.829417 1.87344 0.299805 2.64806 0.299805 3.50948V24.6207C0.299805 26.0348 1.74211 27.0018 3.06802 26.4766C7.60899 24.6779 12.738 25.0849 16.9318 27.5766L19.0078 28.81C19.1661 28.9041 19.3354 28.9452 19.4998 28.9423C19.6642 28.9452 19.8335 28.9041 19.9919 28.81L22.0678 27.5766C26.2616 25.0849 31.3906 24.6779 35.9316 26.4766C37.2575 27.0018 38.6998 26.0348 38.6998 24.6207V3.50948C38.6998 2.64806 38.1702 1.87344 37.3625 1.55352C31.8173 -0.642942 25.5539 -0.145972 20.4327 2.89683L19.4998 3.45109L18.567 2.89683ZM20.8712 7.22303C20.8712 6.473 20.2572 5.86498 19.4998 5.86498C18.7424 5.86498 18.1284 6.473 18.1284 7.22303V24.4251C18.1284 25.1751 18.7424 25.7831 19.4998 25.7831C20.2572 25.7831 20.8712 25.1751 20.8712 24.4251V7.22303Z" fill="#FF7B90"/>
<path d="M2.53951 29.9338C6.24028 27.796 10.8165 27.796 14.5172 29.9338L16.5054 31.0822C18.3558 32.1511 20.6439 32.1511 22.4942 31.0822L24.4824 29.9338C28.1831 27.796 32.7593 27.796 36.4601 29.9338L36.648 30.0423C37.3022 30.4202 37.5232 31.2518 37.1416 31.8996C36.7599 32.5475 35.9202 32.7663 35.2659 32.3884L35.0781 32.2799C32.2313 30.6355 28.7112 30.6355 25.8644 32.2799L23.8763 33.4283C21.1719 34.9905 17.8277 34.9905 15.1233 33.4283L13.1352 32.2799C10.2885 30.6355 6.7683 30.6355 3.92156 32.2799L3.73369 32.3884C3.07944 32.7663 2.23969 32.5475 1.85805 31.8996C1.47641 31.2518 1.6974 30.4202 2.35164 30.0423L2.53951 29.9338Z" fill="#FF7B90"/>
</svg>
