<svg width="50" height="50" viewBox="0 0 50 50" fill="none" xmlns="http://www.w3.org/2000/svg">
<path d="M30.3821 5.90534C27.1982 5.54295 23.9834 5.54295 20.7995 5.90534L17.5025 6.28061C17.0148 6.33612 16.6335 6.72705 16.5901 7.21597L16.3367 10.0716C15.9106 14.873 15.9106 19.7026 16.3367 24.504L16.5901 27.3596C16.6374 27.8928 17.0841 28.3016 17.6194 28.3016H21.9003V43.6C21.9003 44.039 22.1777 44.4301 22.592 44.5752C23.0063 44.7204 23.4671 44.5879 23.7411 44.2449L24.5485 43.2339C29.3626 37.2065 33.196 30.4576 35.9075 23.2359L36.3011 22.1876C36.4202 21.8702 36.3761 21.5146 36.1831 21.236C35.9901 20.9573 35.6726 20.7911 35.3337 20.7911H29.7266L34.5326 7.66254C34.6415 7.36499 34.6079 7.03391 34.4414 6.76433C34.2749 6.49474 33.9939 6.31644 33.6791 6.28061L30.3821 5.90534Z" fill="#68EFA3"/>
</svg>
