<svg width="37" height="45" viewBox="0 0 37 45" fill="none" xmlns="http://www.w3.org/2000/svg">
<path d="M11.5955 10.315C11.5955 10.7527 11.5605 11.4824 11.1398 11.9566C10.684 12.3944 9.98273 12.4309 9.562 12.4309C7.19511 12.4309 3.91187 11.8275 1.6732 12.7592C5.0898 6.53982 11.7085 2.40709 11.6657 2.76347C11.3503 5.22449 11.5955 7.83965 11.5955 10.315ZM18.6779 38.551C18.6779 35.5231 21.0621 33.0424 24.0072 33.0424C24.8838 33.0424 25.585 33.772 25.585 34.6841C25.585 35.3042 25.2695 35.815 24.7786 36.1068C24.244 36.4405 23.5036 36.2849 23.0255 36.727C22.6749 37.0188 22.3944 37.4931 22.3944 38.0038C22.3944 38.551 22.6048 39.0617 22.9554 39.4265C23.5865 40.0832 24.428 40.448 25.3396 40.448C27.7237 40.448 29.6521 38.4416 29.6521 35.9609C29.6521 33.7356 28.2146 31.7656 26.3213 30.8901C23.4479 29.3952 19.0517 30.2459 18.713 25.5639C18.186 28.0403 17.0235 32.4587 13.8745 32.4587C4.36216 33.0467 0.933539 25.2299 0.270752 16.9545C0.270752 15.1669 1.32259 13.963 2.65492 13.7806C5.03909 13.7806 7.42326 13.7806 9.80742 13.7806C11.0346 13.7806 11.7358 13.4523 12.1916 13.0145C12.7876 12.4309 12.9279 11.5918 12.9279 10.6068C12.9279 8.04101 12.9279 4.09538 12.9279 2.9094C12.9279 1.36054 14.2602 0.428711 15.9782 0.428711C16.9903 0.428711 17.9401 0.464789 18.9234 0.720556C21.0621 1.26777 21.5179 3.52957 21.5179 3.52957C21.5179 3.52957 25.5499 4.25918 27.5835 4.62399C29.5119 4.9888 34.2802 5.31712 35.1918 10.315C37.3305 22.2077 36.0333 33.7356 35.9281 33.7356C34.4205 44.9716 25.4448 44.4244 25.4448 44.4244C22.1821 44.4244 18.6779 42.1655 18.6779 38.551ZM29.1963 19.1798C28.0393 19.0703 27.0576 19.5446 26.707 20.4566C26.2101 21.749 31.3351 22.8237 31.3351 21.0403C31.1948 20.0188 30.3533 19.3257 29.1963 19.1798Z" fill="#00A82D"/>
</svg>
