<svg width="30" height="41" viewBox="0 0 30 41" fill="none" xmlns="http://www.w3.org/2000/svg">
<path fill-rule="evenodd" clip-rule="evenodd" d="M14.9995 20.429C14.9995 16.6682 18.1655 13.6194 22.0709 13.6194C25.9764 13.6194 29.1424 16.6682 29.1424 20.429C29.1424 24.1898 25.9764 27.2385 22.0709 27.2385C18.1655 27.2385 14.9995 24.1898 14.9995 20.429Z" fill="#1ABCFE"/>
<path fill-rule="evenodd" clip-rule="evenodd" d="M0.856689 34.0479C0.856689 30.2871 4.02268 27.2384 7.92812 27.2384H14.9995V34.0479C14.9995 37.8087 11.8336 40.8574 7.92812 40.8574C4.02268 40.8574 0.856689 37.8087 0.856689 34.0479Z" fill="#0ACF83"/>
<path fill-rule="evenodd" clip-rule="evenodd" d="M14.9995 0.000244141V13.6193H22.0709C25.9764 13.6193 29.1424 10.5706 29.1424 6.80977C29.1424 3.04897 25.9764 0.000244141 22.0709 0.000244141H14.9995Z" fill="#FF7262"/>
<path fill-rule="evenodd" clip-rule="evenodd" d="M0.856689 6.80965C0.856689 10.5704 4.02268 13.6192 7.92812 13.6192H14.9995V0.00012207H7.92812C4.02268 0.00012207 0.856689 3.04885 0.856689 6.80965Z" fill="#F24E1E"/>
<path fill-rule="evenodd" clip-rule="evenodd" d="M0.856689 20.4288C0.856689 24.1896 4.02268 27.2383 7.92812 27.2383H14.9995V13.6193H7.92812C4.02268 13.6193 0.856689 16.668 0.856689 20.4288Z" fill="#A259FF"/>
</svg>
