<svg width="78" height="78" viewBox="0 0 78 78" fill="none" xmlns="http://www.w3.org/2000/svg">
<rect x="0.48291" y="0.187744" width="77.034" height="77.034" rx="23.1102" fill="#DEDFE3"/>
<path d="M30.5342 34.414V34.054C30.5342 33.1415 31.2688 32.3847 32.2156 32.3218L39.1123 31.8638L48.6499 45.8354V33.573L46.1949 33.2474V33.0764C46.1949 32.1532 46.9464 31.3914 47.9053 31.3426L54.1805 31.0228V31.9212C54.1805 32.3429 53.8653 32.7036 53.4332 32.7763L51.9231 33.0304V52.8889L50.0279 53.5373C48.4446 54.079 46.6819 53.4992 45.7756 52.1386L36.5163 38.2392V51.5054L39.3663 52.0479L39.3266 52.3109C39.2022 53.1346 38.4873 53.7576 37.6225 53.7959L30.5342 54.1098C30.4405 53.224 31.1078 52.4315 32.0285 52.3353L32.9609 52.2378V34.5496L30.5342 34.414Z" fill="black"/>
<path fill-rule="evenodd" clip-rule="evenodd" d="M47.3277 15.6077L18.9108 17.5377C17.2086 17.6533 15.8892 19.0146 15.8892 20.6552V48.1505C15.8892 49.6919 16.4226 51.1896 17.4054 52.4076L23.5325 60.0007C24.5231 61.2284 26.0821 61.9044 27.695 61.8056L59.2346 59.8743C60.8512 59.7753 62.1096 58.4859 62.1096 56.9286V25.6692C62.1096 24.7057 61.6205 23.8029 60.7993 23.2506L50.8151 16.5354C49.7976 15.8511 48.5664 15.5236 47.3277 15.6077ZM20.3199 21.0841C19.9247 20.793 20.1128 20.1866 20.6093 20.1512L47.5189 18.2311C48.3763 18.1699 49.2282 18.4048 49.9216 18.8935L55.3208 22.6988C55.5258 22.8433 55.4297 23.1551 55.1759 23.1689L26.6787 24.7106C25.8163 24.7573 24.965 24.5053 24.2793 24.0002L20.3199 21.0841ZM25.3421 29.544C25.3421 28.623 26.09 27.8623 27.0464 27.8105L57.176 26.1782C58.1081 26.1277 58.8928 26.8408 58.8928 27.7383V54.8057C58.8928 55.725 58.1475 56.4849 57.193 56.539L27.2541 58.2336C26.2168 58.2923 25.3421 57.4993 25.3421 56.5003V29.544Z" fill="black"/>
</svg>
