<svg width="41" height="41" viewBox="0 0 41 41" fill="none" xmlns="http://www.w3.org/2000/svg">
<path d="M37.0002 18.8571C39.1697 18.8571 40.9284 17.0984 40.9284 14.9289V14.9289C40.9284 12.7594 39.1695 11.0007 37 11.0007V11.0007C34.8303 11.0007 33.0713 12.7595 33.0713 14.9292V18.8571H37.0002ZM25.9999 18.8571C28.1695 18.8571 29.9284 17.0982 29.9284 14.9285V3.92924C29.9284 1.75955 28.1695 0.000671387 25.9999 0.000671387V0.000671387C23.8302 0.000671387 22.0713 1.75955 22.0713 3.92924V14.9285C22.0713 17.0982 23.8302 18.8571 25.9999 18.8571V18.8571Z" fill="#2EB67D"/>
<path d="M4.00007 22.0006C1.83057 22.0006 0.0718384 23.7593 0.0718384 25.9288V25.9288C0.0718384 28.0983 1.83073 29.857 4.00024 29.857V29.857C6.16992 29.857 7.92897 28.0981 7.92897 25.9284V22.0006H4.00007ZM15.0004 22.0006C12.8307 22.0006 11.0718 23.7594 11.0718 25.9291V36.9284C11.0718 39.0981 12.8307 40.857 15.0004 40.857V40.857C17.1701 40.857 18.929 39.0981 18.929 36.9284V25.9291C18.929 23.7594 17.1701 22.0006 15.0004 22.0006V22.0006Z" fill="#E01E5A"/>
<path d="M22.0725 36.9291C22.0725 39.0986 23.8312 40.8574 26.0007 40.8574V40.8574C28.1702 40.8574 29.929 39.0985 29.929 36.929V36.929C29.929 34.7593 28.1701 33.0002 26.0004 33.0002L22.0725 33.0002L22.0725 36.9291ZM22.0725 25.9288C22.0725 28.0985 23.8314 29.8574 26.0011 29.8574L37.0004 29.8574C39.1701 29.8574 40.929 28.0985 40.929 25.9288V25.9288C40.929 23.7591 39.1701 22.0002 37.0004 22.0002L26.0011 22.0002C23.8314 22.0002 22.0725 23.7591 22.0725 25.9288V25.9288Z" fill="#ECB22E"/>
<path d="M18.928 3.92853C18.928 1.75903 17.1693 0.000305431 14.9998 0.000305336V0.000305336C12.8302 0.000305241 11.0715 1.7592 11.0715 3.9287V3.9287C11.0715 6.09839 12.8304 7.85744 15.0001 7.85744L18.928 7.85744L18.928 3.92853ZM18.928 14.9289C18.928 12.7592 17.1691 11.0003 14.9994 11.0003L4.0001 11.0003C1.83041 11.0003 0.0715335 12.7592 0.0715334 14.9289V14.9289C0.0715333 17.0985 1.83041 18.8574 4.0001 18.8574L14.9994 18.8574C17.1691 18.8574 18.928 17.0985 18.928 14.9289V14.9289Z" fill="#36C5F0"/>
</svg>
