<svg width="39" height="39" viewBox="0 0 39 39" fill="none" xmlns="http://www.w3.org/2000/svg">
<path d="M23.4813 23.4185C20.9226 24.3813 18.0554 24.3831 15.4966 23.4191C14.5326 20.863 14.5323 17.9963 15.4951 15.4398C18.0532 14.4753 20.9233 14.4752 23.4814 15.4397C24.4451 17.9953 24.4447 20.8628 23.4813 23.4185ZM38.0959 16.2859H27.0815L34.8694 8.50221C33.6472 6.78635 32.1383 5.27906 30.4214 4.05751L22.6329 11.8412V0.833555C20.5543 0.484089 18.4225 0.484622 16.3438 0.833555V11.8412L8.55533 4.05751C6.83889 5.27823 5.32949 6.78759 4.10717 8.50221L11.8962 16.2859H0.881979C0.6101 18.4256 0.521767 20.4365 0.881979 22.5718H11.8964L4.10731 30.3555C5.33259 32.0739 6.83586 33.5763 8.55533 34.8008L16.3438 27.0165V38.0247C18.4227 38.3729 20.5539 38.3731 22.6328 38.0247V27.0165L30.422 34.8008C32.1396 33.578 33.6459 32.072 34.8694 30.3555L27.0803 22.5718H38.0959C38.4455 20.4962 38.4455 18.3615 38.0959 16.2859Z" fill="#FF4A00"/>
</svg>
